<svg xmlns="http://www.w3.org/2000/svg" viewBox="0 0 800 380" font-family="Calibri, sans-serif">
  <defs>
    <linearGradient id="bgGradA" x1="0" y1="0" x2="0" y2="1">
      <stop offset="0%" stop-color="#080F1A"/>
      <stop offset="100%" stop-color="#0D1E30"/>
    </linearGradient>
  </defs>

  <!-- Background -->
  <rect width="800" height="380" fill="url(#bgGradA)" rx="8"/>

  <!-- Title -->
  <text x="400" y="42" text-anchor="middle" fill="#C9A84C" font-size="13" letter-spacing="4" font-weight="bold">THE FIVE C's OF BEHAVIORAL READING</text>
  <line x1="220" y1="55" x2="580" y2="55" stroke="#C9A84C" stroke-width="0.5" opacity="0.6"/>
  <text x="400" y="72" text-anchor="middle" fill="#8A9AB5" font-size="11">The architecture without which individual signals are noise</text>

  <!-- Tab-style layout -->
  <!-- Tab 1: Context -->
  <rect x="40" y="95" width="140" height="38" rx="4" fill="#A83030" opacity="0.2"/>
  <text x="110" y="118" text-anchor="middle" fill="#A83030" font-size="12" font-weight="bold">CONTEXT</text>
  <rect x="40" y="133" width="140" height="100" rx="0" fill="#0D1E30" stroke="#A83030" stroke-width="1"/>
  <rect x="40" y="133" width="140" height="1" fill="#A83030"/>
  <text x="55" y="155" fill="#FFFFFF" font-size="9" font-weight="bold">What environment?</text>
  <text x="55" y="172" fill="#8A9AB5" font-size="8.5">Same gesture means</text>
  <text x="55" y="185" fill="#8A9AB5" font-size="8.5">different things in</text>
  <text x="55" y="198" fill="#8A9AB5" font-size="8.5">different settings.</text>
  <text x="55" y="218" fill="#A83030" font-size="8" font-style="italic">Context determines</text>
  <text x="55" y="229" fill="#A83030" font-size="8" font-style="italic">meaning. Always.</text>

  <!-- Tab 2: Clusters -->
  <rect x="192" y="95" width="140" height="38" rx="4" fill="#E8C870" opacity="0.15"/>
  <text x="262" y="118" text-anchor="middle" fill="#E8C870" font-size="12" font-weight="bold">CLUSTERS</text>
  <rect x="192" y="133" width="140" height="100" rx="0" fill="#0D1E30" stroke="#E8C870" stroke-width="1"/>
  <rect x="192" y="133" width="140" height="1" fill="#E8C870"/>
  <text x="207" y="155" fill="#FFFFFF" font-size="9" font-weight="bold">Multiple signals?</text>
  <text x="207" y="172" fill="#8A9AB5" font-size="8.5">One signal is noise.</text>
  <text x="207" y="185" fill="#8A9AB5" font-size="8.5">Three co-occurring</text>
  <text x="207" y="198" fill="#8A9AB5" font-size="8.5">behaviors = a pattern.</text>
  <text x="207" y="218" fill="#E8C870" font-size="8" font-style="italic">Never act on a</text>
  <text x="207" y="229" fill="#E8C870" font-size="8" font-style="italic">single signal.</text>

  <!-- Tab 3: Congruence -->
  <rect x="344" y="95" width="140" height="38" rx="4" fill="#1A8FA8" opacity="0.15"/>
  <text x="414" y="118" text-anchor="middle" fill="#1A8FA8" font-size="12" font-weight="bold">CONGRUENCE</text>
  <rect x="344" y="133" width="140" height="100" rx="0" fill="#0D1E30" stroke="#1A8FA8" stroke-width="1"/>
  <rect x="344" y="133" width="140" height="1" fill="#1A8FA8"/>
  <text x="359" y="155" fill="#FFFFFF" font-size="9" font-weight="bold">Body = words?</text>
  <text x="359" y="172" fill="#8A9AB5" font-size="8.5">When body says one</text>
  <text x="359" y="185" fill="#8A9AB5" font-size="8.5">thing and words say</text>
  <text x="359" y="198" fill="#8A9AB5" font-size="8.5">another: body is truth.</text>
  <text x="359" y="218" fill="#1A8FA8" font-size="8" font-style="italic">Incongruence is your</text>
  <text x="359" y="229" fill="#1A8FA8" font-size="8" font-style="italic">most reliable signal.</text>

  <!-- Tab 4: Consistency -->
  <rect x="496" y="95" width="140" height="38" rx="4" fill="#6B52A0" opacity="0.15"/>
  <text x="566" y="118" text-anchor="middle" fill="#6B52A0" font-size="11" font-weight="bold">CONSISTENCY</text>
  <rect x="496" y="133" width="140" height="100" rx="0" fill="#0D1E30" stroke="#6B52A0" stroke-width="1"/>
  <rect x="496" y="133" width="140" height="1" fill="#6B52A0"/>
  <text x="511" y="155" fill="#FFFFFF" font-size="9" font-weight="bold">Their baseline?</text>
  <text x="511" y="172" fill="#8A9AB5" font-size="8.5">Compare to that</text>
  <text x="511" y="185" fill="#8A9AB5" font-size="8.5">individual's personal</text>
  <text x="511" y="198" fill="#8A9AB5" font-size="8.5">baseline. Not generic.</text>
  <text x="511" y="218" fill="#6B52A0" font-size="8" font-style="italic">Deviation from their</text>
  <text x="511" y="229" fill="#6B52A0" font-size="8" font-style="italic">baseline is the data.</text>

  <!-- Tab 5: Culture -->
  <rect x="648" y="95" width="120" height="38" rx="4" fill="#C9A84C" opacity="0.12"/>
  <text x="708" y="118" text-anchor="middle" fill="#C9A84C" font-size="12" font-weight="bold">CULTURE</text>
  <rect x="648" y="133" width="120" height="100" rx="0" fill="#0D1E30" stroke="#C9A84C" stroke-width="1"/>
  <rect x="648" y="133" width="120" height="1" fill="#C9A84C"/>
  <text x="663" y="155" fill="#FFFFFF" font-size="9" font-weight="bold">Background norms?</text>
  <text x="663" y="172" fill="#8A9AB5" font-size="8.5">Eye contact, space,</text>
  <text x="663" y="185" fill="#8A9AB5" font-size="8.5">expressiveness vary</text>
  <text x="663" y="198" fill="#8A9AB5" font-size="8.5">significantly.</text>
  <text x="663" y="218" fill="#C9A84C" font-size="8" font-style="italic">Calibrate before</text>
  <text x="663" y="229" fill="#C9A84C" font-size="8" font-style="italic">concluding.</text>

  <!-- Chain flow -->
  <text x="400" y="268" text-anchor="middle" fill="#FFFFFF" font-size="10" font-weight="bold">APPLY AS A CHAIN — NOT A CHECKLIST</text>

  <rect x="55" y="285" width="96" height="26" rx="13" fill="#A83030" opacity="0.2"/>
  <text x="103" y="302" text-anchor="middle" fill="#A83030" font-size="9" font-weight="bold">Context</text>
  <text x="160" y="302" fill="#3A4A5C" font-size="12">&gt;</text>

  <rect x="173" y="285" width="96" height="26" rx="13" fill="#E8C870" opacity="0.15"/>
  <text x="221" y="302" text-anchor="middle" fill="#E8C870" font-size="9" font-weight="bold">Clusters</text>
  <text x="278" y="302" fill="#3A4A5C" font-size="12">&gt;</text>

  <rect x="291" y="285" width="110" height="26" rx="13" fill="#1A8FA8" opacity="0.15"/>
  <text x="346" y="302" text-anchor="middle" fill="#1A8FA8" font-size="9" font-weight="bold">Congruence</text>
  <text x="410" y="302" fill="#3A4A5C" font-size="12">&gt;</text>

  <rect x="423" y="285" width="110" height="26" rx="13" fill="#6B52A0" opacity="0.15"/>
  <text x="478" y="302" text-anchor="middle" fill="#6B52A0" font-size="9" font-weight="bold">Consistency</text>
  <text x="542" y="302" fill="#3A4A5C" font-size="12">&gt;</text>

  <rect x="555" y="285" width="96" height="26" rx="13" fill="#C9A84C" opacity="0.12"/>
  <text x="603" y="302" text-anchor="middle" fill="#C9A84C" font-size="9" font-weight="bold">Culture</text>
  <text x="660" y="302" fill="#3A4A5C" font-size="12">&gt;</text>

  <rect x="673" y="285" width="80" height="26" rx="13" fill="#FFFFFF" opacity="0.1"/>
  <text x="713" y="302" text-anchor="middle" fill="#FFFFFF" font-size="9" font-weight="bold">READ</text>

  <!-- Bottom note -->
  <text x="400" y="340" text-anchor="middle" fill="#8A9AB5" font-size="9">Most weak readings fail because they skip this chain. They treat behavior like a vending machine.</text>
  <text x="400" y="355" text-anchor="middle" fill="#C9A84C" font-size="9" font-style="italic">Real behavior breathes. It moves. It has to be read in motion, against a baseline, inside a context.</text>

  <!-- Footer -->
  <text x="400" y="375" text-anchor="middle" fill="#3A4A5C" font-size="8">THE ARCHITECTURE OF WONDER  |  DECODE BEHAVIOR</text>
</svg>